<svg xmlns="http://www.w3.org/2000/svg" width="141.176" height="36.633" viewBox="0 0 141.176 36.633"><defs><style>.a{fill:#0267ff;}.b{fill:#575a65;}</style></defs><path class="a" d="M21.833,19.593a7.408,7.408,0,0,1,3.534-6.185,7.413,7.413,0,0,0-5.933-3.156C16.91,10,14.512,11.767,13.25,11.767s-3.282-1.515-5.3-1.388a7.827,7.827,0,0,0-6.564,4.039C-1.519,19.34.627,26.662,3.4,30.7c1.389,2.02,3.029,4.165,5.049,4.039s2.777-1.262,5.3-1.262c2.4,0,3.156,1.262,5.3,1.262s3.534-2.02,4.923-3.913a14.467,14.467,0,0,0,2.272-4.544C26.125,26.031,21.959,24.39,21.833,19.593Z" transform="translate(0 -2.426)"/><path class="a" d="M21.69,5.253A6.932,6.932,0,0,0,23.331.077a8.3,8.3,0,0,0-4.8,2.4A6.682,6.682,0,0,0,16.893,7.4,5.432,5.432,0,0,0,21.69,5.253Z" transform="translate(-3.899 -0.077)"/><path class="b" d="M68.738,36.312H65.884l-1.489-4.84H59.059l-1.489,4.84h-2.73l5.336-16.5H63.4Zm-4.716-6.825-1.365-4.343c-.124-.5-.372-1.489-.869-3.1-.124.745-.372,1.737-.745,3.1l-1.489,4.343Z" transform="translate(-12.689 -4.643)"/><path class="b" d="M87.441,31.539a6.925,6.925,0,0,1-1.613,4.84,5.1,5.1,0,0,1-3.6,1.613,3.535,3.535,0,0,1-3.351-1.737v6.329H76.272V29.677c0-1.241,0-2.606-.124-3.971h2.358l.124,1.861a4.479,4.479,0,0,1,3.971-2.11,4.232,4.232,0,0,1,3.475,1.613A7.1,7.1,0,0,1,87.441,31.539Zm-2.73.124a5.141,5.141,0,0,0-.745-2.854,2.882,2.882,0,0,0-2.358-1.117,2.965,2.965,0,0,0-1.737.62,3.073,3.073,0,0,0-.993,1.737,2.183,2.183,0,0,0-.124.745V32.78a3.465,3.465,0,0,0,.745,2.234,2.557,2.557,0,0,0,2.11.869,2.882,2.882,0,0,0,2.358-1.117A6.045,6.045,0,0,0,84.711,31.663Z" transform="translate(-17.62 -5.95)"/><path class="b" d="M105.2,31.539a6.925,6.925,0,0,1-1.613,4.84,5.1,5.1,0,0,1-3.6,1.613,3.535,3.535,0,0,1-3.35-1.737v6.329H94.034V29.677c0-1.241,0-2.606-.124-3.971h2.358l.124,1.861a4.479,4.479,0,0,1,3.971-2.11,4.231,4.231,0,0,1,3.474,1.613A7.1,7.1,0,0,1,105.2,31.539Zm-2.73.124a5.139,5.139,0,0,0-.744-2.854,2.883,2.883,0,0,0-2.358-1.117,2.965,2.965,0,0,0-1.737.62,3.073,3.073,0,0,0-.993,1.737,2.184,2.184,0,0,0-.124.745V32.78a3.465,3.465,0,0,0,.745,2.234,2.556,2.556,0,0,0,2.11.869,2.883,2.883,0,0,0,2.358-1.117A6.044,6.044,0,0,0,102.472,31.663Z" transform="translate(-21.73 -5.95)"/><path class="b" d="M125.394,31.72a4.506,4.506,0,0,1-1.49,3.475,6.476,6.476,0,0,1-4.467,1.489,8.149,8.149,0,0,1-4.219-.993l.62-2.234a6.967,6.967,0,0,0,3.847,1.117,4.414,4.414,0,0,0,2.357-.62,2.414,2.414,0,0,0,.125-3.6,6.223,6.223,0,0,0-2.234-1.241C117.079,28,115.59,26.508,115.59,24.4a4.25,4.25,0,0,1,1.489-3.351,5.99,5.99,0,0,1,4.1-1.241,8.289,8.289,0,0,1,3.723.745l-.745,1.985a6.725,6.725,0,0,0-3.1-.745,3.237,3.237,0,0,0-2.234.745,1.67,1.67,0,0,0-.621,1.489,2,2,0,0,0,.745,1.613,8.057,8.057,0,0,0,2.358,1.241,8.917,8.917,0,0,1,3.1,1.986A3.839,3.839,0,0,1,125.394,31.72Z" transform="translate(-26.66 -4.643)"/><path class="b" d="M137.72,26.87h-2.854V32.7q0,2.234,1.489,2.234a2.753,2.753,0,0,0,1.117-.124L137.6,36.8a5.169,5.169,0,0,1-2.11.248A3.464,3.464,0,0,1,133,36.053a4.566,4.566,0,0,1-.869-3.226V26.87H130.4V24.884h1.738V22.651l2.606-.745v2.978H137.6A10.7,10.7,0,0,1,137.72,26.87Z" transform="translate(-30.173 -5.128)"/><path class="b" d="M153.49,31.539a6,6,0,0,1-1.613,4.467,5.632,5.632,0,0,1-4.343,1.861,5.7,5.7,0,0,1-4.219-1.737,5.9,5.9,0,0,1-1.613-4.343,6.5,6.5,0,0,1,1.613-4.592,5.789,5.789,0,0,1,4.343-1.737,5.7,5.7,0,0,1,4.219,1.737A5.9,5.9,0,0,1,153.49,31.539Zm-2.73.124a5.438,5.438,0,0,0-.745-2.854,2.44,2.44,0,0,0-2.357-1.365,2.861,2.861,0,0,0-2.482,1.365,5.14,5.14,0,0,0-.745,2.854,5.438,5.438,0,0,0,.745,2.854,2.663,2.663,0,0,0,4.715-.124A4.012,4.012,0,0,0,150.76,31.663Z" transform="translate(-32.788 -5.95)"/><path class="b" d="M166.277,28.064c-.248,0-.5-.124-.869-.124a2.3,2.3,0,0,0-2.11,1.117,3.542,3.542,0,0,0-.62,2.358v6.2h-2.606v-8.19a34.783,34.783,0,0,0-.125-3.723h2.358l.124,2.234h.125a4.054,4.054,0,0,1,1.365-1.861,3.691,3.691,0,0,1,1.862-.62h.62A19.153,19.153,0,0,0,166.277,28.064Z" transform="translate(-37.011 -5.95)"/><path class="b" d="M180.464,31.241a3.813,3.813,0,0,1-.125,1.241H172.4a3.467,3.467,0,0,0,1.117,2.73,4.1,4.1,0,0,0,2.606.869,9.323,9.323,0,0,0,3.227-.62l.372,1.861a9.856,9.856,0,0,1-3.971.745,5.532,5.532,0,0,1-4.343-1.613,6.217,6.217,0,0,1-1.613-4.343,6.7,6.7,0,0,1,1.489-4.467,5.041,5.041,0,0,1,4.22-1.861,4.345,4.345,0,0,1,3.847,1.861A5.212,5.212,0,0,1,180.464,31.241Zm-2.606-.745a3.38,3.38,0,0,0-.5-1.986,2.3,2.3,0,0,0-2.109-1.117,2.439,2.439,0,0,0-2.11,1.117,3.131,3.131,0,0,0-.745,2.11Z" transform="translate(-39.288 -6.025)"/><path class="b" d="M61.545,5.41A4.2,4.2,0,0,1,60.18,8.761a5.776,5.776,0,0,1-3.475.993,8.215,8.215,0,0,1-1.861-.124V1.687a13.488,13.488,0,0,1,2.234-.124,4.992,4.992,0,0,1,3.226.869A3.679,3.679,0,0,1,61.545,5.41Zm-1.365,0a3.238,3.238,0,0,0-.745-2.234A3.034,3.034,0,0,0,57.2,2.432a2.419,2.419,0,0,0-.993.124V8.637h.869a3.089,3.089,0,0,0,2.358-.869A2.87,2.87,0,0,0,60.18,5.41Z" transform="translate(-12.69 -0.421)"/><path class="b" d="M71.369,7.286a3.465,3.465,0,0,1-.745,2.234,2.556,2.556,0,0,1-2.11.869,2.722,2.722,0,0,1-2.11-.869,3.131,3.131,0,0,1-.745-2.11,3.465,3.465,0,0,1,.745-2.234,2.556,2.556,0,0,1,2.11-.869,2.722,2.722,0,0,1,2.11.869A3.131,3.131,0,0,1,71.369,7.286ZM70,7.41a2.5,2.5,0,0,0-.372-1.365A1.193,1.193,0,0,0,68.515,5.3a1.51,1.51,0,0,0-1.241.745A2.5,2.5,0,0,0,66.9,7.41a2.5,2.5,0,0,0,.372,1.365,1.246,1.246,0,0,0,1.241.745,1.193,1.193,0,0,0,1.117-.745A2.5,2.5,0,0,0,70,7.41Z" transform="translate(-15.193 -1.056)"/><path class="b" d="M83.266,4.469,81.4,10.3H80.163L79.419,7.82a10.342,10.342,0,0,1-.5-1.861,10.335,10.335,0,0,1-.5,1.861L77.681,10.3H76.44L74.7,4.469h1.365l.62,2.73.372,1.861c.124-.5.248-1.117.5-1.861l.869-2.73h1.117l.745,2.73a11.614,11.614,0,0,1,.5,1.986c.124-.62.248-1.241.372-1.986l.745-2.73Z" transform="translate(-17.286 -1.094)"/><path class="b" d="M93.069,10.227H91.828V6.877q0-1.489-1.117-1.489a1.409,1.409,0,0,0-.993.372,1.409,1.409,0,0,0-.372.993v3.475H88.1V4.395H89.1v.869a3.289,3.289,0,0,1,.62-.745,2,2,0,0,1,1.117-.372,1.866,1.866,0,0,1,1.365.5,2.407,2.407,0,0,1,.621,1.986v3.6Z" transform="translate(-20.387 -1.019)"/><path class="b" d="M98.87,9.517H97.629V1.079H98.87Z" transform="translate(-22.591 -0.309)"/><path class="b" d="M107.539,7.286a3.463,3.463,0,0,1-.744,2.234,2.557,2.557,0,0,1-2.11.869,2.723,2.723,0,0,1-2.11-.869,3.13,3.13,0,0,1-.744-2.11,3.463,3.463,0,0,1,.744-2.234,2.557,2.557,0,0,1,2.11-.869,2.723,2.723,0,0,1,2.11.869A3.13,3.13,0,0,1,107.539,7.286Zm-1.365.124a2.5,2.5,0,0,0-.372-1.365,1.192,1.192,0,0,0-1.117-.745,1.512,1.512,0,0,0-1.241.745,2.507,2.507,0,0,0-.372,1.365,2.507,2.507,0,0,0,.372,1.365,1.247,1.247,0,0,0,1.241.745,1.192,1.192,0,0,0,1.117-.745A2.5,2.5,0,0,0,106.174,7.41Z" transform="translate(-23.563 -1.056)"/><path class="b" d="M115.871,10.264h-1.117l-.124-.62a2.084,2.084,0,0,1-1.738.745,1.867,1.867,0,0,1-1.365-.5,2.2,2.2,0,0,1-.5-1.241,1.683,1.683,0,0,1,.869-1.613,3.9,3.9,0,0,1,2.482-.5V6.417c0-.745-.373-1.117-1.241-1.117a2.645,2.645,0,0,0-1.489.372l-.124-.869a3.385,3.385,0,0,1,1.986-.5c1.489,0,2.234.745,2.234,2.358v2.11A8.488,8.488,0,0,1,115.871,10.264Zm-1.365-1.985V7.41c-1.489,0-2.11.372-2.11,1.117a1.769,1.769,0,0,0,.248.745.95.95,0,0,0,.621.248,1.761,1.761,0,0,0,.744-.248,1.138,1.138,0,0,0,.5-.745Z" transform="translate(-25.692 -1.056)"/><path class="b" d="M125.37,9.517h-1.117V8.525a1.924,1.924,0,0,1-1.862,1.117,2.013,2.013,0,0,1-1.737-.869,3.131,3.131,0,0,1-.745-2.11,3.577,3.577,0,0,1,.745-2.358,2.639,2.639,0,0,1,1.862-.869,1.707,1.707,0,0,1,1.613.745v-3.1h1.241V8.028A6,6,0,0,0,125.37,9.517Zm-1.365-2.482V5.67a1.14,1.14,0,0,0-.5-.745,1.127,1.127,0,0,0-.869-.372,1.3,1.3,0,0,0-1.117.62,2.646,2.646,0,0,0-.372,1.489,2.229,2.229,0,0,0,.372,1.365,1.3,1.3,0,0,0,1.117.62,1.129,1.129,0,0,0,.993-.5A1.517,1.517,0,0,0,124.005,7.035Z" transform="translate(-27.746 -0.309)"/><path class="b" d="M139.662,7.286a3.463,3.463,0,0,1-.744,2.234,2.557,2.557,0,0,1-2.11.869,2.723,2.723,0,0,1-2.11-.869,3.134,3.134,0,0,1-.744-2.11,3.468,3.468,0,0,1,.744-2.234,2.557,2.557,0,0,1,2.11-.869,2.723,2.723,0,0,1,2.11.869A3.13,3.13,0,0,1,139.662,7.286Zm-1.241.124a2.507,2.507,0,0,0-.372-1.365,1.193,1.193,0,0,0-1.117-.745,1.511,1.511,0,0,0-1.241.745,2.5,2.5,0,0,0-.372,1.365,2.5,2.5,0,0,0,.372,1.365,1.246,1.246,0,0,0,1.241.745,1.193,1.193,0,0,0,1.117-.745A2.507,2.507,0,0,0,138.421,7.41Z" transform="translate(-30.996 -1.056)"/><path class="b" d="M149.052,10.227h-1.241V6.877c0-.993-.373-1.489-1.241-1.489a1.41,1.41,0,0,0-.993.372,1.412,1.412,0,0,0-.372.993v3.475h-1.241V4.395h1.117v.869a3.277,3.277,0,0,1,.62-.745,2.1,2.1,0,0,1,1.241-.372,1.866,1.866,0,0,1,1.365.5,2.407,2.407,0,0,1,.621,1.986v3.6Z" transform="translate(-33.312 -1.019)"/><path class="b" d="M160.8,5.051h-1.49V7.905q0,1.117.745,1.117h.62v.993a2.415,2.415,0,0,1-.992.124,1.6,1.6,0,0,1-1.241-.5,2.816,2.816,0,0,1-.372-1.613V5.051H157.2V4.058h.869V3.066l1.241-.372V4.182h1.49Z" transform="translate(-36.375 -0.683)"/><path class="b" d="M169.471,9.517H168.23V6.167c0-.993-.373-1.613-1.118-1.613a1.194,1.194,0,0,0-1.241.869V9.393h-1.241V1.079h1.241V4.554a1.98,1.98,0,0,1,1.737-.993,1.866,1.866,0,0,1,1.365.5,2.563,2.563,0,0,1,.62,1.986A32.606,32.606,0,0,0,169.471,9.517Z" transform="translate(-38.094 -0.309)"/><path class="b" d="M178.6,7.2v.62h-3.971a1.779,1.779,0,0,0,.62,1.365,2.1,2.1,0,0,0,1.241.372,6.289,6.289,0,0,0,1.613-.248l.247.869a4.722,4.722,0,0,1-1.985.372,2.92,2.92,0,0,1-2.11-.745,2.921,2.921,0,0,1-.744-2.11,3.468,3.468,0,0,1,.744-2.234,2.592,2.592,0,0,1,1.986-.993,2.042,2.042,0,0,1,1.862.993A2.427,2.427,0,0,1,178.6,7.2Zm-1.241-.372a2.343,2.343,0,0,0-.248-.993,1.241,1.241,0,0,0-1.985,0,1.409,1.409,0,0,0-.373.993Z" transform="translate(-40.149 -1.094)"/></svg>