<svg xmlns="http://www.w3.org/2000/svg" width="156.285" height="36.193" viewBox="0 0 156.285 36.193"><defs><style>.a{fill:#575a65;}.b{fill:#00d8ff;}.c{fill:#ffcb00;}.d{fill:#ff3a44;}.e{fill:#00f076;}</style></defs><path class="a" d="M59.57,4.456a4.334,4.334,0,0,1-.942,2.691,4.223,4.223,0,0,1-5.92,0A3.956,3.956,0,0,1,51.5,4.187a3.956,3.956,0,0,1,1.211-2.96A3.956,3.956,0,0,1,55.668.016a3.583,3.583,0,0,1,1.615.4,2.93,2.93,0,0,1,1.211.942l-.673.673a2.61,2.61,0,0,0-2.287-.942,2.677,2.677,0,0,0-2.153.942,2.772,2.772,0,0,0-.942,2.287,2.772,2.772,0,0,0,.942,2.287,3.465,3.465,0,0,0,2.153.942,2.951,2.951,0,0,0,2.287-.942,2.228,2.228,0,0,0,.673-1.615h-2.96V4.053h3.9C59.57,4.053,59.57,4.322,59.57,4.456Z" transform="translate(-9.309 -0.016)"/><path class="a" d="M67.83,1.119H64.2V3.675h3.364v.942H64.2V7.174H67.83v.942H63.121V.177H67.83Z" transform="translate(-11.247 -0.043)"/><path class="a" d="M73.292,8.115H72.216v-7H70.063V.177H75.58v.942H73.292Z" transform="translate(-12.404 -0.043)"/><path class="a" d="M81.534,8.115V.177h1.076V8.115Z" transform="translate(-14.316 -0.043)"/><path class="a" d="M87.64,8.115H86.563v-7H84.276V.177h5.651v.942H87.64Z" transform="translate(-14.773 -0.043)"/><path class="a" d="M102.227,7.147a4.223,4.223,0,0,1-5.92,0A3.956,3.956,0,0,1,95.1,4.187a3.956,3.956,0,0,1,1.211-2.96,4.223,4.223,0,0,1,5.92,0,3.955,3.955,0,0,1,1.211,2.96A4.173,4.173,0,0,1,102.227,7.147ZM96.98,6.474a3.175,3.175,0,0,0,2.153.942,2.678,2.678,0,0,0,2.153-.942,3.245,3.245,0,0,0,.942-2.287,2.772,2.772,0,0,0-.942-2.287A3.176,3.176,0,0,0,99.132.958,2.677,2.677,0,0,0,96.98,1.9a3.246,3.246,0,0,0-.942,2.287A4.374,4.374,0,0,0,96.98,6.474Z" transform="translate(-16.576 -0.016)"/><path class="a" d="M106.879,8.115V.177h1.211l3.9,6.189V.177h1.077V8.115h-1.077l-4.171-6.458V8.115Z" transform="translate(-18.54 -0.043)"/><path class="a" d="M87.829,22.458a5.652,5.652,0,1,0,5.786,5.651A5.63,5.63,0,0,0,87.829,22.458Zm0,9.149a3.34,3.34,0,0,1-3.229-3.5,3.34,3.34,0,0,1,3.229-3.5,3.259,3.259,0,0,1,3.229,3.5A3.34,3.34,0,0,1,87.829,31.607ZM75.316,22.458A5.652,5.652,0,1,0,81.1,28.109,5.8,5.8,0,0,0,75.316,22.458Zm0,9.149a3.34,3.34,0,0,1-3.229-3.5,3.34,3.34,0,0,1,3.229-3.5,3.259,3.259,0,0,1,3.229,3.5A3.34,3.34,0,0,1,75.316,31.607Zm-14.934-7.4v2.422h5.785a4.7,4.7,0,0,1-1.345,2.96,5.955,5.955,0,0,1-4.44,1.749,6.264,6.264,0,0,1-6.324-6.458,6.347,6.347,0,0,1,6.324-6.458,6.671,6.671,0,0,1,4.44,1.749l1.749-1.749A8.621,8.621,0,0,0,60.516,16,8.875,8.875,0,0,0,51.5,24.746a8.961,8.961,0,0,0,9.014,8.745,7.838,7.838,0,0,0,8.342-8.073,5.046,5.046,0,0,0-.135-1.48C68.454,24.208,60.382,24.208,60.382,24.208Zm61.084,1.884a5.447,5.447,0,0,0-4.978-3.633,5.38,5.38,0,0,0-5.382,5.651,5.518,5.518,0,0,0,5.651,5.651A5.8,5.8,0,0,0,121.6,31.2l-2.018-1.346a3.279,3.279,0,0,1-2.825,1.615,3.046,3.046,0,0,1-2.826-1.749l7.669-3.095C121.734,26.764,121.465,26.091,121.465,26.091Zm-7.8,1.884a3.269,3.269,0,0,1,2.96-3.364,2.381,2.381,0,0,1,2.153,1.211Zm-6.323,5.516h2.557V16.808h-2.557ZM103.3,23.669a4.357,4.357,0,0,0-3.094-1.211,5.751,5.751,0,0,0-5.517,5.651,5.658,5.658,0,0,0,5.517,5.651,3.473,3.473,0,0,0,2.96-1.345h.134v.807c0,2.153-1.211,3.364-3.094,3.364a2.99,2.99,0,0,1-2.826-2.018l-2.153.942a5.55,5.55,0,0,0,5.113,3.364c2.96,0,5.517-1.749,5.517-5.92V22.728h-2.422Zm-2.96,7.938a3.3,3.3,0,0,1-3.229-3.364,3.34,3.34,0,0,1,3.229-3.5,3.237,3.237,0,0,1,3.095,3.5A3.2,3.2,0,0,1,100.341,31.607Zm32.829-14.8h-6.054V33.491h2.556V27.168h3.5a5.286,5.286,0,0,0,5.517-5.113C138.821,18.826,136,16.808,133.17,16.808Zm.135,8.073h-3.633V19.095h3.633a2.87,2.87,0,0,1,2.96,2.825A2.978,2.978,0,0,1,133.305,24.88Zm15.607-2.422a4.522,4.522,0,0,0-4.44,2.556l2.287.942a2.376,2.376,0,0,1,2.288-1.211c1.345,0,2.691.807,2.691,2.153v.134a5.5,5.5,0,0,0-2.691-.673c-2.423,0-4.844,1.346-4.844,3.767,0,2.287,2.018,3.633,4.171,3.633a3.608,3.608,0,0,0,3.229-1.615h.135v1.346h2.422V27.033C154.024,24.073,151.738,22.458,148.912,22.458Zm-.4,9.149c-.808,0-2.018-.4-2.018-1.345,0-1.345,1.48-1.749,2.691-1.749a5.2,5.2,0,0,1,2.288.538A2.925,2.925,0,0,1,148.509,31.607Zm14.262-8.745-2.826,7.265h-.134l-2.96-7.265h-2.691l4.44,10.091L156.043,38.6h2.691L165.6,22.862Zm-22.6,10.629h2.556V16.808h-2.556Z" transform="translate(-9.31 -2.68)"/><path class="b" d="M1.54,1.39A2.644,2.644,0,0,0,.872,3.261V32.528A2.644,2.644,0,0,0,1.54,34.4l.134.134L18.245,18.095v-.4Z" transform="translate(-0.872 -0.245)"/><path class="c" d="M27.2,25.739,21.719,20.26v-.4L27.2,14.38l.134.134,6.548,3.742c1.871,1.069,1.871,2.806,0,3.876L27.2,25.739Z" transform="translate(-4.346 -2.41)"/><path class="d" d="M23.991,26.888l-5.613-5.613L1.674,37.713c.668.668,1.6.668,2.806.134Z" transform="translate(-1.005 -3.559)"/><path class="e" d="M23.991,12.261,4.48,1.3a2.166,2.166,0,0,0-2.806.134l16.7,16.437Z" transform="translate(-1.005 -0.157)"/></svg>